HIERARCHY
ROOT joint_Root
{
	OFFSET 0.0 0.0 0.0
	CHANNELS 6 Xposition Yposition Zposition Zrotation Xrotation Yrotation 
	JOINT Hips
	{
		OFFSET 4.5925 91.4895 -427.239
		CHANNELS 6 Xposition Yposition Zposition Zrotation Xrotation Yrotation 
		JOINT Spine
		{
			OFFSET 15.7357 0.0 0.0
			CHANNELS 6 Xposition Yposition Zposition Zrotation Xrotation Yrotation 
			JOINT Chest
			{
				OFFSET 8.98455 -0.406207 0.0
				CHANNELS 6 Xposition Yposition Zposition Zrotation Xrotation Yrotation 
				JOINT Neck
				{
					OFFSET 16.3773 0.0 0.0
					CHANNELS 6 Xposition Yposition Zposition Zrotation Xrotation Yrotation 
					JOINT Head
					{
						OFFSET 6.45672 0.0 0.0
						CHANNELS 6 Xposition Yposition Zposition Zrotation Xrotation Yrotation 
						End Site
						{
							OFFSET 0.0 0.0 0.0
						}
					}
				}
				JOINT Shoulder_L
				{
					OFFSET 12.9942 -0.242716 4.98039
					CHANNELS 6 Xposition Yposition Zposition Zrotation Xrotation Yrotation 
					JOINT UpperArm_L
					{
						OFFSET 5.34809 0.0 0.0
						CHANNELS 6 Xposition Yposition Zposition Zrotation Xrotation Yrotation 
						JOINT LowerArm_L
						{
							OFFSET 24.3286 1.87007e-05 0.0
							CHANNELS 6 Xposition Yposition Zposition Zrotation Xrotation Yrotation 
							JOINT Hand_L
							{
								OFFSET 22.2916 0.0 0.0
								CHANNELS 6 Xposition Yposition Zposition Zrotation Xrotation Yrotation 
								End Site
								{
									OFFSET 0.0 0.0 0.0
								}
							}
						}
					}
				}
				JOINT Shoulder_R
				{
					OFFSET 12.9945 -0.242716 -4.98039
					CHANNELS 6 Xposition Yposition Zposition Zrotation Xrotation Yrotation 
					JOINT UpperArm_R
					{
						OFFSET -5.34813 0.0 0.0
						CHANNELS 6 Xposition Yposition Zposition Zrotation Xrotation Yrotation 
						JOINT LowerArm_R
						{
							OFFSET -24.3289 0.000322201 0.0
							CHANNELS 6 Xposition Yposition Zposition Zrotation Xrotation Yrotation 
							JOINT Hand_R
							{
								OFFSET -22.2915 -0.000108084 0.0
								CHANNELS 6 Xposition Yposition Zposition Zrotation Xrotation Yrotation 
								End Site
								{
									OFFSET 0.0 0.0 0.0
								}
							}
						}
					}
				}
			}
		}
		JOINT UpperLeg_L
		{
			OFFSET -2.19248 -6.46944 0.0
			CHANNELS 6 Xposition Yposition Zposition Zrotation Xrotation Yrotation 
			JOINT LowerLeg_L
			{
				OFFSET 39.0811 0.0 -1.23785e-05
				CHANNELS 6 Xposition Yposition Zposition Zrotation Xrotation Yrotation 
				JOINT Foot_L
				{
					OFFSET 40.9854 0.0 -1.26872e-05
					CHANNELS 6 Xposition Yposition Zposition Zrotation Xrotation Yrotation 
					JOINT Toes_L
					{
						OFFSET 11.7543 0.0 0.0
						CHANNELS 6 Xposition Yposition Zposition Zrotation Xrotation Yrotation 
						End Site
						{
							OFFSET 0.0 0.0 0.0
						}
					}
				}
			}
		}
		JOINT UpperLeg_R
		{
			OFFSET -2.19251 6.46944 0.0
			CHANNELS 6 Xposition Yposition Zposition Zrotation Xrotation Yrotation 
			JOINT LowerLeg_R
			{
				OFFSET -39.0811 -0.00228153 -0.0401928
				CHANNELS 6 Xposition Yposition Zposition Zrotation Xrotation Yrotation 
				JOINT Foot_R
				{
					OFFSET -40.9854 0.0 0.0
					CHANNELS 6 Xposition Yposition Zposition Zrotation Xrotation Yrotation 
					JOINT Toes_R
					{
						OFFSET -11.7543 0.0 0.0
						CHANNELS 6 Xposition Yposition Zposition Zrotation Xrotation Yrotation 
						End Site
						{
							OFFSET 0.0 0.0 0.0
						}
					}
				}
			}
		}
	}
}
MOTION
Frames:	6
Frame Time:	0.0333333
0.000000 0.000000 0.000000 0.000000 0.000000 -0.000000 1.123170 91.460400 0.413461 88.973000 -5.850560 3.595160 15.735700 0.000005 -0.000001 83.992300 86.247300 -80.309200 8.984550 -0.406207 -0.000000 -0.257691 -1.042910 7.359890 16.377300 -0.000001 -0.000001 6.432520 -3.989110 -1.329120 6.456720 -0.000001 -0.000000 1.519740 -5.922150 3.024210 12.994200 -0.242716 4.980390 -83.373900 -12.446700 -61.676500 5.348090 -0.000007 -0.000001 -25.961500 -74.908800 -65.808000 24.328600 0.000019 0.000005 6.512630 5.770420 -48.629400 22.291600 -0.000001 0.000005 18.304000 5.396740 -2.832180 12.994500 -0.242716 -4.980390 87.504400 8.612060 -73.771700 -5.348130 -0.000001 -0.000004 -55.564200 18.225500 -1.275150 -24.328900 0.000322 -0.000009 -0.848621 -1.795030 -25.280300 -22.291500 -0.000108 -0.000004 18.659800 5.420770 -3.625070 -2.192480 -6.469440 -0.000000 -177.219000 -12.126500 -3.963190 39.081100 -0.000007 -0.000012 -0.135126 0.264338 27.075700 40.985400 -0.000006 -0.000013 0.436138 1.272940 -69.560000 11.754300 -0.000000 0.000003 -0.000072 -0.000778 -16.607600 -2.192510 6.469440 -0.000001 174.825000 23.586400 176.384000 -39.081100 -0.002282 -0.040193 -0.114461 0.240210 26.117900 -40.985400 0.000008 0.000006 4.355560 20.178500 -68.967100 -11.754300 -0.000006 -0.000006 -0.002319 -0.032635 -17.900200
0.000000 0.000000 0.000000 0.000000 0.000000 -0.000000 1.039080 91.472400 0.375821 89.053600 -5.567690 3.620380 15.735700 0.000005 -0.000001 83.505300 86.212600 -79.946900 8.984550 -0.406207 -0.000000 -0.195563 -1.103530 7.110970 16.377300 -0.000001 -0.000001 6.047770 -3.845870 -1.308520 6.456720 -0.000001 -0.000000 1.464200 -5.479150 2.870670 12.994200 -0.242716 4.980390 -83.809200 -11.765900 -61.989300 5.348090 -0.000007 -0.000001 -25.372000 -73.390500 -62.851500 24.328600 0.000019 0.000005 6.377170 4.902270 -52.599400 22.291600 -0.000001 0.000005 18.551100 5.388640 -2.571900 12.994500 -0.242716 -4.980390 87.469300 8.678920 -73.674900 -5.348130 -0.000001 -0.000004 -55.704600 18.095200 -1.781360 -24.328900 0.000322 -0.000009 -0.864571 -1.872120 -24.766800 -22.291500 -0.000108 -0.000004 18.765100 5.422260 -3.675420 -2.192480 -6.469440 -0.000000 -177.235000 -12.085500 -3.953210 39.081100 -0.000007 -0.000012 -0.129106 0.253506 26.989000 40.985400 -0.000006 -0.000013 0.438205 1.491320 -69.463300 11.754300 -0.000000 0.000003 -0.000071 -0.000768 -16.607200 -2.192510 6.469440 -0.000001 174.769000 23.721700 176.446000 -39.081100 -0.002282 -0.040193 -0.124539 0.261412 26.062100 -40.985400 0.000008 0.000006 4.097730 20.066000 -68.847500 -11.754300 -0.000006 -0.000006 -0.002262 -0.031955 -17.872500
0.000000 0.000000 0.000000 0.000000 0.000000 -0.000000 0.944155 91.477000 0.338811 89.098300 -5.216980 3.687260 15.735700 0.000005 -0.000001 83.164300 86.151100 -79.719300 8.984550 -0.406207 -0.000000 -0.078953 -1.151550 6.885120 16.377300 -0.000001 -0.000001 5.615050 -3.705180 -1.189200 6.456720 -0.000001 -0.000000 1.296470 -5.029480 2.748700 12.994200 -0.242716 4.980390 -84.248000 -11.032800 -62.239600 5.348090 -0.000007 -0.000001 -25.183300 -71.029600 -59.081600 24.328600 0.000019 0.000005 6.152560 3.832180 -58.203400 22.291600 -0.000001 0.000005 18.519700 5.384980 -2.455520 12.994500 -0.242716 -4.980390 87.431200 8.742850 -73.555600 -5.348130 -0.000001 -0.000004 -55.866600 18.361100 -2.256550 -24.328900 0.000322 -0.000009 -1.046290 -2.328500 -24.183200 -22.291500 -0.000108 -0.000004 18.853900 5.424380 -3.747030 -2.192480 -6.469440 -0.000000 -177.175000 -11.995500 -3.933780 39.081100 -0.000007 -0.000012 -0.131122 0.257669 26.970700 40.985400 -0.000006 -0.000013 0.437550 1.788950 -69.395800 11.754300 -0.000000 0.000003 -0.000066 -0.000719 -16.605400 -2.192510 6.469440 -0.000001 174.723000 23.919700 176.583000 -39.081100 -0.002282 -0.040193 -0.129519 0.272046 26.024600 -40.985400 0.000008 0.000006 3.936220 19.966300 -68.799100 -11.754300 -0.000006 -0.000006 -0.002507 -0.034891 -17.991900
0.000000 0.000000 0.000000 0.000000 0.000000 -0.000000 0.817918 91.472500 0.290085 89.071300 -4.822320 3.745620 15.735700 0.000005 -0.000001 83.246100 86.087000 -79.899400 8.984550 -0.406207 -0.000000 0.048033 -1.145290 6.689840 16.377300 -0.000001 -0.000001 5.229030 -3.596190 -1.039290 6.456720 -0.000001 -0.000000 1.125300 -4.749110 2.775630 12.994200 -0.242716 4.980390 -84.623800 -10.520300 -62.732100 5.348090 -0.000007 -0.000001 -24.256900 -67.718700 -53.181000 24.328600 0.000019 0.000005 5.862430 2.742340 -65.018400 22.291600 -0.000001 0.000005 18.677500 5.385600 -2.475360 12.994500 -0.242716 -4.980390 87.444500 8.679050 -73.523400 -5.348130 -0.000001 -0.000004 -56.379600 18.591400 -2.609940 -24.328900 0.000322 -0.000009 -1.225870 -2.826200 -23.442900 -22.291500 -0.000108 -0.000004 18.891100 5.427420 -3.850720 -2.192480 -6.469440 -0.000000 -177.034000 -11.909400 -3.998690 39.081100 -0.000007 -0.000012 -0.125717 0.245963 27.072700 40.985400 -0.000006 -0.000013 0.441861 2.141470 -69.367000 11.754300 -0.000000 0.000003 -0.000067 -0.000725 -16.605600 -2.192510 6.469440 -0.000001 174.744000 24.270200 176.703000 -39.081100 -0.002282 -0.040193 -0.141544 0.297093 25.992600 -40.985400 0.000008 0.000006 3.710190 19.954600 -68.705000 -11.754300 -0.000006 -0.000006 -0.002300 -0.032410 -17.891000
0.000000 0.000000 0.000000 0.000000 0.000000 -0.000000 0.691199 91.474800 0.239516 89.030400 -4.305800 3.819510 15.735700 0.000005 -0.000001 83.409700 85.997900 -80.164500 8.984550 -0.406207 -0.000000 0.225778 -1.131690 6.488430 16.377300 -0.000001 -0.000001 4.776090 -3.638350 -0.746526 6.456720 -0.000001 -0.000000 0.952622 -4.537630 2.706270 12.994200 -0.242716 4.980390 -85.038300 -10.021900 -63.487000 5.348090 -0.000007 -0.000001 -23.427400 -63.377900 -46.406900 24.328600 0.000019 0.000005 6.213540 1.985430 -72.349100 22.291600 -0.000001 0.000005 18.666400 5.378270 -2.244220 12.994500 -0.242716 -4.980390 87.447200 8.619800 -73.433700 -5.348130 -0.000001 -0.000004 -56.983900 19.110500 -2.977220 -24.328900 0.000322 -0.000009 -1.385780 -3.315970 -22.680600 -22.291500 -0.000108 -0.000004 18.850600 5.429020 -3.905600 -2.192480 -6.469440 -0.000000 -176.872000 -11.709300 -4.046580 39.081100 -0.000007 -0.000012 -0.129406 0.252392 27.145100 40.985400 -0.000006 -0.000013 0.430321 2.471580 -69.313400 11.754300 -0.000000 0.000003 -0.000062 -0.000677 -16.603800 -2.192510 6.469440 -0.000001 174.769000 24.696800 176.895000 -39.081100 -0.002282 -0.040193 -0.149165 0.313694 25.922800 -40.985400 0.000008 0.000006 3.644900 19.901400 -68.679800 -11.754300 -0.000006 -0.000006 -0.002575 -0.035701 -18.024900
0.000000 0.000000 0.000000 0.000000 0.000000 -0.000000 0.546869 91.482600 0.177477 88.991600 -3.808860 3.856880 15.735700 0.000005 -0.000001 83.528300 85.895800 -80.388300 8.984550 -0.406207 -0.000000 0.428787 -1.125750 6.279820 16.377300 -0.000001 -0.000001 4.193900 -3.796780 -0.354761 6.456720 -0.000001 -0.000000 0.705270 -4.376380 2.435070 12.994200 -0.242716 4.980390 -85.676700 -9.031510 -64.284900 5.348090 -0.000007 -0.000001 -23.445600 -57.970400 -40.344000 24.328600 0.000019 0.000005 6.650750 1.293680 -79.040300 22.291600 -0.000001 0.000005 18.519700 5.371610 -2.036320 12.994500 -0.242716 -4.980390 87.423900 8.637660 -73.323100 -5.348130 -0.000001 -0.000004 -57.573300 19.927300 -3.414610 -24.328900 0.000322 -0.000009 -1.411530 -3.496630 -21.984700 -22.291500 -0.000108 -0.000004 18.779200 5.427770 -3.862840 -2.192480 -6.469440 -0.000000 -176.725000 -11.488500 -4.131340 39.081100 -0.000007 -0.000012 -0.128083 0.249342 27.189100 40.985400 -0.000006 -0.000013 0.411781 2.790960 -69.234600 11.754300 -0.000000 0.000003 -0.000078 -0.000827 -16.609400 -2.192510 6.469440 -0.000001 174.894000 24.873600 176.998000 -39.081100 -0.002282 -0.040193 -0.153401 0.323466 25.849200 -40.985400 0.000008 0.000006 3.547850 19.573300 -68.622800 -11.754300 -0.000006 -0.000006 -0.002328 -0.032747 -17.904700
